<?xml version="1.0" standalone="no"?>
<!DOCTYPE svg PUBLIC "-//W3C//DTD SVG 20010904//EN"
 "http://www.w3.org/TR/2001/REC-SVG-20010904/DTD/svg10.dtd">
<svg version="1.0" xmlns="http://www.w3.org/2000/svg"
 width="216.000000pt" height="216.000000pt" viewBox="0 0 216.000000 216.000000"
 preserveAspectRatio="xMidYMid meet">
<metadata>
Created by potrace 1.11, written by Peter Selinger 2001-2013
</metadata>
<g transform="translate(0.000000,216.000000) scale(0.100000,-0.100000)"
fill="#000000" stroke="none">
<path d="M1601 1876 c-14 -8 -31 -12 -38 -9 -7 3 -13 1 -13 -4 0 -11 -74 -31
-124 -32 -22 -1 -43 -4 -47 -6 -4 -3 -10 1 -12 7 -4 10 -6 10 -6 1 -1 -8 -11
-11 -28 -7 -21 4 -39 -2 -71 -26 -23 -17 -47 -28 -51 -25 -14 8 -36 -38 -36
-75 1 -19 -3 -38 -8 -41 -5 -3 -1 -13 7 -22 9 -8 16 -23 16 -31 0 -9 5 -16 10
-16 6 0 10 -5 10 -11 0 -6 6 -16 13 -23 16 -16 81 -55 87 -53 15 5 61 -42 64
-64 1 -13 5 -30 9 -36 5 -8 0 -8 -18 0 -14 7 -28 20 -31 30 -3 9 -11 17 -17
17 -7 0 -20 9 -30 20 -15 18 -36 25 -59 21 -5 0 -8 3 -8 9 0 5 -7 7 -15 4 -8
-4 -15 -1 -15 6 0 9 -3 10 -14 1 -11 -9 -15 -8 -20 4 -3 9 -10 13 -16 10 -5
-3 -10 -1 -10 4 0 6 -4 11 -10 11 -18 0 -11 -19 13 -34 12 -8 41 -16 65 -17
23 -2 42 -7 42 -11 0 -4 5 -8 11 -8 13 0 39 -25 39 -39 0 -5 8 -12 19 -16 17
-5 87 -74 105 -102 14 -24 -19 -13 -54 18 -70 63 -98 80 -122 76 -35 -6 -56
-17 -62 -32 -6 -16 20 -10 45 11 17 16 43 2 92 -49 15 -16 27 -26 27 -23 0 4
12 -5 28 -19 15 -14 35 -28 45 -31 9 -3 17 -10 17 -16 0 -6 3 -9 6 -5 3 3 18
1 32 -4 15 -6 44 -11 65 -11 20 0 40 -5 44 -11 6 -9 12 -46 15 -92 2 -24 16
-35 44 -35 25 0 36 29 21 55 -7 14 -7 16 3 10 9 -6 12 -4 8 6 -9 24 7 52 32
56 13 2 27 7 30 11 3 4 40 25 83 46 43 21 81 45 84 52 3 8 10 11 17 7 6 -3 8
-3 4 2 -4 4 8 26 28 49 49 58 56 66 49 66 -3 0 -1 9 5 20 7 13 7 20 1 20 -6 0
-17 -13 -25 -28 -16 -31 -100 -112 -116 -112 -14 0 -12 77 3 120 10 28 17 35
37 33 14 -1 40 3 59 9 26 8 36 7 43 -3 8 -11 9 -10 4 4 -3 11 0 20 9 23 8 4
15 12 15 20 0 8 4 14 9 14 5 0 9 11 9 25 0 13 -4 22 -9 19 -5 -3 -9 3 -9 13
-1 10 -9 28 -20 41 -15 19 -23 21 -39 13 -22 -12 -35 6 -21 29 5 8 -1 29 -18
54 -14 23 -25 47 -25 53 0 7 -4 13 -9 13 -4 0 -8 7 -8 15 0 11 -5 12 -26 5
-14 -6 -30 -8 -35 -4 -5 3 -9 0 -9 -6 0 -6 -5 -8 -12 -4 -7 5 -32 9 -56 10
-24 0 -47 5 -51 10 -9 13 -49 34 -63 34 -7 -1 -24 -7 -37 -14z"/>
<path d="M0 815 l0 -545 150 0 150 0 0 248 0 247 335 0 c184 0 335 2 336 5 4
19 5 77 1 88 -3 9 -80 12 -338 12 l-334 0 2 192 3 193 360 0 360 0 3 53 3 52
-515 0 -516 0 0 -545z"/>
<path d="M1228 949 c-79 -8 -136 -33 -144 -63 -3 -12 -4 -52 -2 -90 3 -60 6
-71 28 -87 14 -10 192 -65 395 -122 l370 -103 3 -57 3 -57 -263 2 -263 3 1 68
c0 40 -4 67 -10 68 -64 7 -259 3 -264 -6 -11 -18 -8 -163 4 -179 6 -9 29 -24
50 -33 35 -16 83 -18 464 -20 556 -3 557 -3 559 144 0 52 -4 84 -14 99 -18 27
-46 36 -465 153 l-315 87 -3 52 -3 52 255 -1 c150 0 257 -4 257 -10 1 -5 2
-33 3 -61 l1 -53 138 -3 137 -3 0 85 c0 96 -7 106 -85 128 -45 12 -726 18
-837 7z"/>
</g>
</svg>
